<?xml version="1.0" encoding="UTF-8"?>
<svg xmlns="http://www.w3.org/2000/svg" style="stroke-dasharray:none; shape-rendering:auto; font-family:'Arial'; text-rendering:auto; fill-opacity:1; color-interpolation:auto; color-rendering:auto; font-size:12; fill:black; stroke:black; image-rendering:auto; stroke-miterlimit:10; stroke-linecap:square; stroke-linejoin:miter; font-style:normal; stroke-width:1; stroke-dashoffset:0; font-weight:normal; stroke-opacity:1;" contentScriptType="text/ecmascript" preserveAspectRatio="xMidYMid meet" zoomAndPan="magnify" version="1.0" contentStyleType="text/css" xml:xlink="http://www.w3.org/1999/xlink" width="1361" height="551"><rect x="0" y="35" width="1361" height="145" ry="0" rx="0" style="stroke:#000000; fill:#82B0B7" /><g componentSequence="1"><text x="-107" y="7" transform="rotate(270)" text-anchor="middle" style="font-weight:bold;font-size:10px;stroke:none; fill:#434343"><tspan dy="14" x="-107">SwimLane</tspan></text></g><rect x="0" y="323" width="1361" height="228" ry="0" rx="0" style="stroke:#000000; fill:#D0DAAE" /><g componentSequence="2"><text x="-437" y="7" transform="rotate(270)" text-anchor="middle" style="font-weight:bold;font-size:10px;stroke:none; fill:#434343"><tspan dy="14" x="-437">SwimLane</tspan></text></g><rect x="0" y="179" width="1361" height="145" ry="0" rx="0" style="stroke:#000000; fill:#ADC9AC" /><g componentSequence="3"><text x="-251" y="7" transform="rotate(270)" text-anchor="middle" style="font-weight:bold;font-size:10px;stroke:none; fill:#434343"><tspan dy="14" x="-251">SwimLane</tspan></text></g><g sequence="4"><ellipse cx="147" cy="108" rx="17" ry="17" stroke-width="1" style="fill:url(#linearGradient66FF6696FF96B6FFB6_956642477);" stroke="336633" /></g><g sequence="5"><rect x="190" y="225" width="106" height="56" ry="5" rx="5" style="fill:url(#linearGradientF8FBFEEDF5FCDEEDFAD4E7F8E2E5E9_935513597);" stroke="191970" /></g><g componentSequence="5"><text x="243" y="242" text-anchor="middle" style="font-weight:bold;font-size:10px;stroke:none; fill:#333399"><tspan dy="14" x="243">Orçamento</tspan></text></g><g sequence="7"><polygon points=" 330 239 360 209 390 239 360 269 330 239" style="fill:url(#linearGradientFAFBFCFFFFCC_872243165);" stroke="000000" /></g><g componentSequence="7"><text x="360" y="272" text-anchor="middle" style="font-weight:bold;font-size:10px;stroke:none; fill:#333399"><tspan dy="14" x="360">Decisão</tspan></text></g><g sequence="11"><rect x="580" y="355" width="106" height="84" ry="5" rx="5" style="fill:url(#linearGradientF8FBFEEDF5FCDEEDFAD4E7F8E2E5E9_1996474310);" stroke="191970" /></g><g componentSequence="11"><text x="633" y="370" text-anchor="middle" style="font-weight:bold;font-size:10px;stroke:none; fill:#333399"><tspan dy="14" x="633">Engenheiro/Chef</tspan><tspan dy="14" x="633">e de Escritório</tspan></text></g><g sequence="12"><rect x="860" y="362" width="106" height="70" ry="5" rx="5" style="fill:url(#linearGradientF8FBFEEDF5FCDEEDFAD4E7F8E2E5E9_1716463080);" stroke="191970" /></g><g componentSequence="12"><text x="913" y="377" text-anchor="middle" style="font-weight:bold;font-size:10px;stroke:none; fill:#333399"><tspan dy="14" x="913">Aprovação</tspan><tspan dy="14" x="913">Superior</tspan></text></g><g sequence="13"><rect x="1110" y="362" width="106" height="70" ry="5" rx="5" style="fill:url(#linearGradientF8FBFEEDF5FCDEEDFAD4E7F8E2E5E9_1195618809);" stroke="191970" /></g><g componentSequence="13"><text x="1163" y="377" text-anchor="middle" style="font-weight:bold;font-size:10px;stroke:none; fill:#333399"><tspan dy="14" x="1163">Aprovação</tspan><tspan dy="14" x="1163">Diretor</tspan></text></g><g sequence="14"><rect x="450" y="211" width="106" height="84" ry="5" rx="5" style="fill:url(#linearGradientF8FBFEEDF5FCDEEDFAD4E7F8E2E5E9_504958331);" stroke="191970" /></g><g componentSequence="14"><text x="503" y="226" text-anchor="middle" style="font-weight:bold;font-size:10px;stroke:none; fill:#333399"><tspan dy="14" x="503">Compras</tspan><tspan dy="14" x="503">Aprovação</tspan><tspan dy="14" x="503">Superior Matriz</tspan></text></g><g sequence="17"><polygon points=" 600 239 630 209 660 239 630 269 600 239" style="fill:url(#linearGradientFAFBFCFFFFCC_382744713);" stroke="000000" /></g><g componentSequence="17"><text x="630" y="272" text-anchor="middle" style="font-weight:bold;font-size:10px;stroke:none; fill:#333399"><tspan dy="14" x="630">Decisão</tspan></text></g><g sequence="18"><polygon points=" 740 383 770 353 800 383 770 413 740 383" style="fill:url(#linearGradientFAFBFCFFFFCC_154091486);" stroke="000000" /></g><g componentSequence="18"><text x="770" y="416" text-anchor="middle" style="font-weight:bold;font-size:10px;stroke:none; fill:#333399"><tspan dy="14" x="770">Decisão</tspan></text></g><g sequence="19"><polygon points=" 1010 383 1040 353 1070 383 1040 413 1010 383" style="fill:url(#linearGradientFAFBFCFFFFCC_1404672891);" stroke="000000" /></g><g componentSequence="19"><text x="1040" y="416" text-anchor="middle" style="font-weight:bold;font-size:10px;stroke:none; fill:#333399"><tspan dy="14" x="1040">Decisão</tspan></text></g><g sequence="20"><polygon points=" 1260 383 1290 353 1320 383 1290 413 1260 383" style="fill:url(#linearGradientFAFBFCFFFFCC_85796514);" stroke="000000" /></g><g componentSequence="20"><text x="1290" y="416" text-anchor="middle" style="font-weight:bold;font-size:10px;stroke:none; fill:#333399"><tspan dy="14" x="1290">Decisão</tspan></text></g><g sequence="31"><ellipse cx="777" cy="507" rx="17" ry="17" stroke-width="3" style="fill:url(#linearGradientFF6666FF9696FFB6B6_312361720);" stroke="993333" /></g><g sequence="33"><ellipse cx="1047" cy="507" rx="17" ry="17" stroke-width="3" style="fill:url(#linearGradientFF6666FF9696FFB6B6_1656704698);" stroke="993333" /></g><g sequence="35"><ellipse cx="1297" cy="497" rx="17" ry="17" stroke-width="3" style="fill:url(#linearGradientFF6666FF9696FFB6B6_2109891541);" stroke="993333" /></g><g componentSequence="6"><text x="157" y="210" style="font-size:10px;font-weight:none;stroke:none; fill:#333399" text-anchor="left" /></g><g componentSequence="8"><text x="113" y="316" style="font-size:10px;font-weight:none;stroke:none; fill:#333399" text-anchor="left" /></g><g componentSequence="9"><text x="323" y="253" style="font-size:10px;font-weight:none;stroke:none; fill:#333399" text-anchor="left" /></g><g componentSequence="15"><text x="430" y="253" style="font-size:10px;font-weight:none;stroke:none; fill:#333399" text-anchor="left" /></g><g componentSequence="16"><text x="430" y="396" style="font-size:10px;font-weight:none;stroke:none; fill:#333399" text-anchor="left" /></g><g componentSequence="24"><text x="723" y="397" style="font-size:10px;font-weight:none;stroke:none; fill:#333399" text-anchor="left" /></g><g componentSequence="25"><text x="840" y="397" style="font-size:10px;font-weight:none;stroke:none; fill:#333399" text-anchor="left" /></g><g componentSequence="26"><text x="998" y="397" style="font-size:10px;font-weight:none;stroke:none; fill:#333399" text-anchor="left" /></g><g componentSequence="27"><text x="1100" y="397" style="font-size:10px;font-weight:none;stroke:none; fill:#333399" text-anchor="left" /></g><g componentSequence="28"><text x="1248" y="397" style="font-size:10px;font-weight:none;stroke:none; fill:#333399" text-anchor="left" /></g><g componentSequence="29"><text x="588" y="253" style="font-size:10px;font-weight:none;stroke:none; fill:#333399" text-anchor="left" /></g><g componentSequence="30"><text x="642" y="326" style="font-size:10px;font-weight:none;stroke:none; fill:#333399" text-anchor="left" /></g><g componentSequence="32"><text x="785" y="465" style="font-size:10px;font-weight:none;stroke:none; fill:#333399" text-anchor="left" /></g><g componentSequence="34"><text x="1055" y="465" style="font-size:10px;font-weight:none;stroke:none; fill:#333399" text-anchor="left" /></g><g componentSequence="36"><text x="1305" y="460" style="font-size:10px;font-weight:none;stroke:none; fill:#333399" text-anchor="left" /></g><g componentSequence="37"><text x="580" y="142" style="font-size:10px;font-weight:none;stroke:none; fill:#333399" text-anchor="left" /></g><g componentSequence="38"><text x="715" y="142" style="font-size:10px;font-weight:none;stroke:none; fill:#333399" text-anchor="left" /></g><g componentSequence="39"><text x="840" y="142" style="font-size:10px;font-weight:none;stroke:none; fill:#333399" text-anchor="left" /></g><g componentSequence="40"><text x="437" y="141" style="font-size:10px;font-weight:none;stroke:none; fill:#333399" text-anchor="left" /></g><path style="fill:none; stroke:#000000;stroke-width:1" d="M147.0 126.0 L147.0 252.0 L189.0 252.0" /><polygon style="fill:#000000; stroke:#000000;" points=" 179 247 189 252 179 257 181 252" /><path style="fill:none; stroke:#000000;stroke-width:1" d="M329.0 283.0 L296.0 316.0 L101.0 316.0 L100.0 108.0 L129.0 108.0" /><polygon style="fill:#000000; stroke:#000000;" points=" 119 103 129 108 119 113 121 108" /><path style="fill:none; stroke:#000000;stroke-width:1" d="M296.0 253.0 L329.0 253.0" /><polygon style="fill:#000000; stroke:#000000;" points=" 319 248 329 253 319 258 321 253" /><path style="fill:none; stroke:#000000;stroke-width:1" d="M769.0 352.0 L769.0 142.0 L242.0 142.0 L242.0 224.0" /><polygon style="fill:#000000; stroke:#000000;" points=" 247 214 242 224 237 214 242 216" /><path style="fill:none; stroke:#000000;stroke-width:1" d="M1039.0 352.0 L1039.0 142.0 L242.0 142.0 L242.0 224.0" /><polygon style="fill:#000000; stroke:#000000;" points=" 247 214 242 224 237 214 242 216" /><path style="fill:none; stroke:#000000;stroke-width:1" d="M1289.0 352.0 L1288.0 142.0 L242.0 143.0 L242.0 224.0" /><polygon style="fill:#000000; stroke:#000000;" points=" 247 214 242 224 237 214 242 216" /><path style="fill:none; stroke:#000000;stroke-width:1" d="M629.0 208.0 L627.0 141.0 L242.0 141.0 L242.0 224.0" /><polygon style="fill:#000000; stroke:#000000;" points=" 247 214 242 224 237 214 242 216" /><path style="fill:none; stroke:#000000;stroke-width:1" d="M390.0 253.0 L449.0 253.0" /><polygon style="fill:#000000; stroke:#000000;" points=" 439 248 449 253 439 258 441 253" /><path style="fill:none; stroke:#000000;stroke-width:1" d="M360.0 297.0 L360.0 396.0 L579.0 396.0" /><polygon style="fill:#000000; stroke:#000000;" points=" 569 391 579 396 569 401 571 396" /><path style="fill:none; stroke:#000000;stroke-width:1" d="M686.0 397.0 L739.0 397.0" /><polygon style="fill:#000000; stroke:#000000;" points=" 729 392 739 397 729 402 731 397" /><path style="fill:none; stroke:#000000;stroke-width:1" d="M631.0 297.0 L632.0 354.0" /><polygon style="fill:#000000; stroke:#000000;" points=" 637 344 632 354 627 344 632 346" /><path style="fill:none; stroke:#000000;stroke-width:1" d="M966.0 397.0 L1009.0 397.0" /><polygon style="fill:#000000; stroke:#000000;" points=" 999 392 1009 397 999 402 1001 397" /><path style="fill:none; stroke:#000000;stroke-width:1" d="M800.0 397.0 L859.0 397.0" /><polygon style="fill:#000000; stroke:#000000;" points=" 849 392 859 397 849 402 851 397" /><path style="fill:none; stroke:#000000;stroke-width:1" d="M1216.0 397.0 L1259.0 397.0" /><polygon style="fill:#000000; stroke:#000000;" points=" 1249 392 1259 397 1249 402 1251 397" /><path style="fill:none; stroke:#000000;stroke-width:1" d="M1070.0 397.0 L1109.0 397.0" /><polygon style="fill:#000000; stroke:#000000;" points=" 1099 392 1109 397 1099 402 1101 397" /><path style="fill:none; stroke:#000000;stroke-width:1" d="M556.0 253.0 L599.0 253.0" /><polygon style="fill:#000000; stroke:#000000;" points=" 589 248 599 253 589 258 591 253" /><path style="fill:none; stroke:#000000;stroke-width:1" d="M773.0 441.0 L776.0 490.0" /><polygon style="fill:#000000; stroke:#000000;" points=" 780 480 776 490 770 480 776 482" /><path style="fill:none; stroke:#000000;stroke-width:1" d="M1043.0 441.0 L1046.0 490.0" /><polygon style="fill:#000000; stroke:#000000;" points=" 1050 480 1046 490 1040 480 1046 482" /><path style="fill:none; stroke:#000000;stroke-width:1" d="M1293.0 441.0 L1296.0 480.0" /><polygon style="fill:#000000; stroke:#000000;" points=" 1300 470 1296 480 1290 470 1295 472" /><defs><linearGradient xmlns:xlink="http://www.w3.org/1999/xlink" xlink:href="#linearGradient66FF6696FF96B6FFB6" id="linearGradient66FF6696FF96B6FFB6_956642477" x1="0" y1="91.0" x2="0" y2="126.0" gradientUnits="userSpaceOnUse" xlink:type="simple" xlink:actuate="onLoad" xlink:show="other" /><linearGradient id="linearGradient66FF6696FF96B6FFB6"><stop style="stop-color:#66FF66;stop-opacity:1;" offset="0.0" id="stop66FF66" /><stop style="stop-color:#96FF96;stop-opacity:1;" offset="0.5" id="stop96FF96" /><stop style="stop-color:#B6FFB6;stop-opacity:1;" offset="1.0" id="stopB6FFB6" /></linearGradient><linearGradient xmlns:xlink="http://www.w3.org/1999/xlink" xlink:href="#linearGradientF8FBFEEDF5FCDEEDFAD4E7F8E2E5E9" id="linearGradientF8FBFEEDF5FCDEEDFAD4E7F8E2E5E9_935513597" x1="0" y1="225.0" x2="0" y2="331.0" gradientUnits="userSpaceOnUse" xlink:type="simple" xlink:actuate="onLoad" xlink:show="other" /><linearGradient id="linearGradientF8FBFEEDF5FCDEEDFAD4E7F8E2E5E9"><stop style="stop-color:#F8FBFE;stop-opacity:1;" offset="0.0" id="stopF8FBFE" /><stop style="stop-color:#EDF5FC;stop-opacity:1;" offset="0.25" id="stopEDF5FC" /><stop style="stop-color:#DEEDFA;stop-opacity:1;" offset="0.5" id="stopDEEDFA" /><stop style="stop-color:#D4E7F8;stop-opacity:1;" offset="0.75" id="stopD4E7F8" /><stop style="stop-color:#E2E5E9;stop-opacity:1;" offset="1.0" id="stopE2E5E9" /></linearGradient><linearGradient xmlns:xlink="http://www.w3.org/1999/xlink" xlink:href="#linearGradientFAFBFCFFFFCC" id="linearGradientFAFBFCFFFFCC_872243165" x1="0" y1="209.0" x2="0" y2="269.0" gradientUnits="userSpaceOnUse" xlink:type="simple" xlink:actuate="onLoad" xlink:show="other" /><linearGradient id="linearGradientFAFBFCFFFFCC"><stop style="stop-color:#FAFBFC;stop-opacity:1;" offset="0.0" id="stopFAFBFC" /><stop style="stop-color:#FFFFCC;stop-opacity:1;" offset="1.0" id="stopFFFFCC" /></linearGradient><linearGradient xmlns:xlink="http://www.w3.org/1999/xlink" xlink:href="#linearGradientF8FBFEEDF5FCDEEDFAD4E7F8E2E5E9" id="linearGradientF8FBFEEDF5FCDEEDFAD4E7F8E2E5E9_1996474310" x1="0" y1="355.0" x2="0" y2="461.0" gradientUnits="userSpaceOnUse" xlink:type="simple" xlink:actuate="onLoad" xlink:show="other" /><linearGradient xmlns:xlink="http://www.w3.org/1999/xlink" xlink:href="#linearGradientF8FBFEEDF5FCDEEDFAD4E7F8E2E5E9" id="linearGradientF8FBFEEDF5FCDEEDFAD4E7F8E2E5E9_1716463080" x1="0" y1="362.0" x2="0" y2="468.0" gradientUnits="userSpaceOnUse" xlink:type="simple" xlink:actuate="onLoad" xlink:show="other" /><linearGradient xmlns:xlink="http://www.w3.org/1999/xlink" xlink:href="#linearGradientF8FBFEEDF5FCDEEDFAD4E7F8E2E5E9" id="linearGradientF8FBFEEDF5FCDEEDFAD4E7F8E2E5E9_1195618809" x1="0" y1="362.0" x2="0" y2="468.0" gradientUnits="userSpaceOnUse" xlink:type="simple" xlink:actuate="onLoad" xlink:show="other" /><linearGradient xmlns:xlink="http://www.w3.org/1999/xlink" xlink:href="#linearGradientF8FBFEEDF5FCDEEDFAD4E7F8E2E5E9" id="linearGradientF8FBFEEDF5FCDEEDFAD4E7F8E2E5E9_504958331" x1="0" y1="211.0" x2="0" y2="317.0" gradientUnits="userSpaceOnUse" xlink:type="simple" xlink:actuate="onLoad" xlink:show="other" /><linearGradient xmlns:xlink="http://www.w3.org/1999/xlink" xlink:href="#linearGradientFAFBFCFFFFCC" id="linearGradientFAFBFCFFFFCC_382744713" x1="0" y1="209.0" x2="0" y2="269.0" gradientUnits="userSpaceOnUse" xlink:type="simple" xlink:actuate="onLoad" xlink:show="other" /><linearGradient xmlns:xlink="http://www.w3.org/1999/xlink" xlink:href="#linearGradientFAFBFCFFFFCC" id="linearGradientFAFBFCFFFFCC_154091486" x1="0" y1="353.0" x2="0" y2="413.0" gradientUnits="userSpaceOnUse" xlink:type="simple" xlink:actuate="onLoad" xlink:show="other" /><linearGradient xmlns:xlink="http://www.w3.org/1999/xlink" xlink:href="#linearGradientFAFBFCFFFFCC" id="linearGradientFAFBFCFFFFCC_1404672891" x1="0" y1="353.0" x2="0" y2="413.0" gradientUnits="userSpaceOnUse" xlink:type="simple" xlink:actuate="onLoad" xlink:show="other" /><linearGradient xmlns:xlink="http://www.w3.org/1999/xlink" xlink:href="#linearGradientFAFBFCFFFFCC" id="linearGradientFAFBFCFFFFCC_85796514" x1="0" y1="353.0" x2="0" y2="413.0" gradientUnits="userSpaceOnUse" xlink:type="simple" xlink:actuate="onLoad" xlink:show="other" /><linearGradient xmlns:xlink="http://www.w3.org/1999/xlink" xlink:href="#linearGradientFF6666FF9696FFB6B6" id="linearGradientFF6666FF9696FFB6B6_312361720" x1="0" y1="490.0" x2="0" y2="525.0" gradientUnits="userSpaceOnUse" xlink:type="simple" xlink:actuate="onLoad" xlink:show="other" /><linearGradient id="linearGradientFF6666FF9696FFB6B6"><stop style="stop-color:#FF6666;stop-opacity:1;" offset="0.0" id="stopFF6666" /><stop style="stop-color:#FF9696;stop-opacity:1;" offset="0.5" id="stopFF9696" /><stop style="stop-color:#FFB6B6;stop-opacity:1;" offset="1.0" id="stopFFB6B6" /></linearGradient><linearGradient xmlns:xlink="http://www.w3.org/1999/xlink" xlink:href="#linearGradientFF6666FF9696FFB6B6" id="linearGradientFF6666FF9696FFB6B6_1656704698" x1="0" y1="490.0" x2="0" y2="525.0" gradientUnits="userSpaceOnUse" xlink:type="simple" xlink:actuate="onLoad" xlink:show="other" /><linearGradient xmlns:xlink="http://www.w3.org/1999/xlink" xlink:href="#linearGradientFF6666FF9696FFB6B6" id="linearGradientFF6666FF9696FFB6B6_2109891541" x1="0" y1="480.0" x2="0" y2="515.0" gradientUnits="userSpaceOnUse" xlink:type="simple" xlink:actuate="onLoad" xlink:show="other" /></defs></svg>
